<svg width="24" height="24" viewBox="0 0 24 24" fill="none" xmlns="http://www.w3.org/2000/svg">
<g clip-path="url(#clip0_1058_7964)">
<path d="M12 15C13.1046 15 14 14.1046 14 13C14 11.8954 13.1046 11 12 11C10.8954 11 10 11.8954 10 13C10 14.1046 10.8954 15 12 15Z" stroke="#454B5B" stroke-linecap="round" stroke-linejoin="round"/>
<path d="M13.4492 11.55L15.4992 9.5" stroke="#454B5B" stroke-linecap="round" stroke-linejoin="round"/>
<path d="M6.4 19.9997C4.93815 18.8377 3.87391 17.2499 3.35478 15.4561C2.83564 13.6624 2.88732 11.7516 3.50265 9.98847C4.11797 8.2254 5.26647 6.69737 6.78899 5.61616C8.3115 4.53495 10.1326 3.9541 12 3.9541C13.8674 3.9541 15.6885 4.53495 17.211 5.61616C18.7335 6.69737 19.882 8.2254 20.4974 9.98847C21.1127 11.7516 21.1644 13.6624 20.6452 15.4561C20.1261 17.2499 19.0619 18.8377 17.6 19.9997H6.4Z" stroke="#454B5B" stroke-linecap="round" stroke-linejoin="round"/>
</g>
<defs>
<clipPath id="clip0_1058_7964">
<rect width="24" height="24" fill="white"/>
</clipPath>
</defs>
</svg>
